<?xml version="1.0" standalone="no"?>
<!DOCTYPE svg PUBLIC "-//W3C//DTD SVG 20010904//EN"
 "http://www.w3.org/TR/2001/REC-SVG-20010904/DTD/svg10.dtd">
<svg version="1.0" xmlns="http://www.w3.org/2000/svg"
 width="300.000000pt" height="300.000000pt" viewBox="0 0 300.000000 300.000000"
 preserveAspectRatio="xMidYMid meet">
<metadata>
Created by potrace 1.14, written by Peter Selinger 2001-2017
</metadata>
<g transform="translate(0.000000,300.000000) scale(0.100000,-0.100000)"
fill="#000000" stroke="none">
<path d="M0 1500 l0 -1500 1500 0 1500 0 0 1500 0 1500 -1500 0 -1500 0 0
-1500z m2700 980 l0 -220 -1200 0 -1200 0 0 220 0 220 1200 0 1200 0 0 -220z
m-490 -890 l0 -220 -730 0 -730 0 -2 -471 -3 -471 -109 -64 c-93 -54 -112 -61
-130 -52 -12 6 -63 35 -113 65 l-93 54 0 690 0 689 955 0 955 0 0 -220z m398
-847 l92 -54 0 -129 0 -129 -92 -54 c-51 -30 -102 -59 -114 -65 -18 -9 -37 -2
-130 52 l-109 64 0 132 0 132 109 64 c93 54 112 61 130 52 12 -6 63 -35 114
-65z"/>
</g>
</svg>
